<?xml version="1.0" encoding="UTF-8" standalone="no"?>
<svg xmlns="http://www.w3.org/2000/svg" xmlns:xlink="http://www.w3.org/1999/xlink" width="256" height="256" version="1.0">
  <defs>
    <linearGradient id="lg1">
      <stop style="stop-color:#fff;stop-opacity:1" offset="0"/>
      <stop style="stop-color:#fff;stop-opacity:0" offset="1"/>
    </linearGradient>
    <linearGradient xlink:href="#lg1" id="lg2" gradientUnits="userSpaceOnUse" gradientTransform="matrix(-0.5914583,0,0,0.5914584,210.0216,142.2324)" x1="-344.153" y1="274.711" x2="-395.849" y2="425.4"/>
  </defs>
  <g transform="translate(-373.642,-318.344)">
    <rect transform="scale(-1,1)" ry="35.49" rx="35.49" y="328.85" x="-619.15" height="234.99" width="235.01" style="fill:#e15a00;fill-opacity:1;stroke:none"/>
    <path d="M 557.057,338.895 L 446.227,338.895 C 416.89,338.895 393.273,362.705 393.273,392.28 L 393.273,500.408 C 394.222,523.494 397.875,508.899 404.828,483.333 C 412.908,453.62 439.224,427.65 471.272,408.187 C 495.734,393.332 523.113,383.846 572.952,382.944 C 601.217,382.432 598.721,346.261 557.057,338.895 z" style="opacity:0.607;fill:url(#lg2);fill-opacity:1;stroke:none"/>
    <circle cx="448.5" cy="506.0" r="21.5" style="fill:#fff;stroke:none"/>
    <path d="M 427.835,455.057 L 427.762,424.784 C 492.468,428.159 528.381,474.457 529.262,526.723 L 498.944,526.723 C 498.441,480.782 467.203,456.728 427.835,455.057 z" style="fill:#fff;stroke:none"/>
    <path d="M 428.201,404.571 L 427.323,373.814 C 526.751,378.43 580.0,450.582 580.671,526.723 L 549.474,526.284 C 550.839,477.58 514.809,406.017 428.201,404.571 z" style="fill:#fff;stroke:none"/>
  </g>
</svg>
